<svg id="aschem_logo" data-name="aschem_logo" xmlns="http://www.w3.org/2000/svg" viewBox="0 0 1920 318">
	<path id="A" fill="#01a0e2" d="M.55,218.67c2.19-8.21,8.07-13.86,12.74-20.2,25.42-34.49,50.98-68.87,76.54-103.25,16.16-21.74,46.07-26.41,67.43-10.41,3.29,2.47,6.29,5.56,8.76,8.86,28.39,37.83,56.63,75.75,84.95,113.63,2.96,3.96,5.77,7.88,5.97,13.12.32,8.35-4.37,15.72-12.02,18.55-7.77,2.87-16.14.54-21.2-6.12-6.7-8.81-13.27-17.73-19.91-26.6-20.5-27.4-40.96-54.83-61.55-82.17-2.22-2.95-4.98-5.55-7.76-7.99-3.7-3.24-7.56-3.24-11.31.05-2.64,2.32-5.12,4.92-7.24,7.72-27.12,35.94-54.16,71.94-81.23,107.91-6.18,8.2-15.64,10.67-24.04,6.21-5.37-2.85-8.58-7.4-9.97-13.46-.18-1.94-.18-3.77-.18-5.85Z"/>
	<path id="S" fill="#01a0e2" d="M463.92,240.14c-45.25,0-90.22,0-135.19,0-9.78,0-16.98-5.35-19.19-14.14-2.91-11.59,5.3-22.67,17.25-23.29,1.27-.06,2.54-.04,3.82-.04,70.32,0,140.64,0,210.96.02,3.07,0,5.95-.33,8.46-2.32,3.8-3.01,5.32-7.22,3.97-11.86-1.36-4.69-4.45-7.59-9.33-8.38-1.25-.2-2.53-.21-3.8-.21-63.96,0-127.92-.07-191.88.03-18.46.03-32.98-7.26-42.99-22.69-19.26-29.69-.48-69.88,34.62-74.45,2.15-.28,4.35-.31,6.53-.31,71.14-.02,142.28-.02,213.42-.01,9.19,0,16.22,4.91,18.72,12.94,2.5,8.05-.49,16.56-7.53,21.3-3.26,2.2-6.89,3.04-10.82,3.04-70.96-.03-141.91-.03-212.87.02-2.05,0-4.22.23-6.13.92-5.25,1.89-8.03,6.9-7.2,12.34.74,4.83,5.62,9.13,10.9,9.51,2.17.15,4.36.08,6.54.08,63.14,0,126.29-.02,189.43-.02,28.71,0,50.93,23.78,48.94,52.38-1.68,24.05-19.68,42.47-43.79,44.78-2.44.23-4.89.35-7.34.35-25.08.03-50.15.02-75.5.02Z"/>
	<path id="C" fill="#01a0e2" d="M795.91,82.49c36.16,0,72.04-.01,107.92,0,9.02,0,15.99,4.85,18.54,12.78,3.94,12.23-4.96,24.47-17.84,24.47-65.77.01-131.54,0-197.32,0-8.09,0-15.88,1.07-22.8,5.84-9.13,6.29-13.75,15.16-15.38,25.86-1.34,8.74-.98,17.39,1.41,25.9,4.26,15.15,16.93,25.08,32.64,25.23,18.53.18,37.06.08,55.6.08,48.24,0,96.48,0,144.72,0,9.24,0,16.38,4.83,18.94,12.72,3.91,12.04-4.36,24.02-17.08,24.71-1.18.06-2.36.04-3.54.04-67.13,0-134.27-.34-201.4.19-23.17.18-40.23-9.37-52.7-27.98-20.16-30.1-21.36-69.35-.6-100.25,8.37-12.45,19.22-22.13,33.7-26.74,5.78-1.84,12.09-2.7,18.17-2.75,32.25-.26,64.5-.12,97.02-.12Z"/>
	<path id="H" fill="#01a0e2" d="M982.06,246.22c-1.6-.42-2.92-.89-4.28-1.24-4.94-1.27-9.38-3.44-12.87-7.24-2.47-2.69-3.82-5.81-3.81-9.6.05-44.05.05-88.1,0-132.15,0-5.11,2.33-8.87,6.12-11.86,10.44-8.23,27.38-8.28,37.93-.22,4.25,3.25,6.44,7.47,6.43,12.87-.04,14.9-.01,29.79,0,44.69,0,.97,0,1.94,0,3.2,1.31,0,2.29,0,3.27,0,56.58,0,113.17-.02,169.75.06,2.5,0,3.22-.62,3.2-3.16-.12-14.62.14-29.25-.14-43.87-.14-7.12,2.98-11.94,8.74-15.47,10.57-6.49,25.96-5.61,35.67,2.08,3.88,3.07,6.01,6.92,6,12.17-.11,43.14-.19,86.28.06,129.42.05,8.07-3.54,13.14-10.19,16.41-3.4,1.67-7.28,2.37-11.06,3.7-2.85.19-5.59.19-8.67,0-3.12-1-6.03-1.52-8.66-2.67-7.73-3.39-12.15-8.44-11.91-17.55.37-14.34.03-28.69.16-43.04.02-2.6-.8-3.15-3.25-3.14-56.66.06-113.33.07-169.99,0-2.4,0-3.06.6-3.04,3.02.11,14.89.04,29.78.07,44.68.01,5.4-2.02,9.87-6.53,12.75-3.16,2.02-6.77,3.35-10.24,4.87-1.36.59-2.85.86-4.29,1.28h-8.47Z"/>
	<path id="E1" fill="#01a0e2" d="M1473.53,142.65c27.61,0,54.95-.02,82.29,0,9.65.01,17.34,6.97,18.46,16.56,1.09,9.26-4.97,17.99-14.16,20.17-2,.47-4.14.5-6.22.5-57.49.03-114.99.03-172.48.02-10.61,0-17.96-5.51-19.94-14.86-2.44-11.51,6.31-22.38,18.04-22.39,31.25-.02,62.49,0,94.01,0Z"/>
	<path id="E2" fill="#01a0e2" d="M1571.41,240.11c-69.2.02-138.15.07-207.09,0-19.76-.02-34.41-9.93-45.53-25.31-22.49-31.11-23.83-73.87-.12-105.77,9.59-12.9,21.81-22.29,37.99-25.48,3.54-.7,7.21-1.02,10.82-1.02,67.4-.06,134.81-.05,202.21-.04,8.68,0,15.38,4.35,18.24,11.7,2.78,7.16,1,15.28-4.58,20.54-3.67,3.45-8.05,5.04-13.11,5.04-64.41-.03-128.81-.02-193.22-.02-8.59,0-16.78,1.27-23.93,6.63-7.99,6-12.33,14.05-14.02,23.74-1.65,9.45-1.37,18.82,1.4,28.01,4.4,14.64,16.87,24.07,32.13,24.47,3.36.09,6.72.06,10.08.06,62.23,0,124.45,0,186.68,0,9.57,0,17.07,5.39,19.18,13.82,3.19,12.7-6,23.05-17.12,23.61Z"/>
	<path id="M" fill="#01a0e2" d="M1920.1,224.54c-.43,4.03-2.55,7.14-5.53,9.68-9.33,7.94-24.74,8.18-34.36.57-4.32-3.42-6.55-7.81-6.54-13.41.05-24.07.02-48.14.02-72.21v-3.52c-6.35,6.63-12.23,12.76-18.11,18.89-18.61,19.4-37.55,38.49-55.7,58.31-12.25,13.38-39.32,13.55-51.94-.18-23.28-25.34-47.52-49.8-71.34-74.64-.62-.65-1.06-1.46-1.59-2.2-.27.14-.54.27-.82.41v2.81c0,23.25,0,46.5,0,69.75,0,11.34-4.78,17.75-15.83,20.51-8.57,2.14-16.77,1.11-24.07-4.28-4.53-3.34-6.89-7.86-6.89-13.53,0-43.32-.04-86.65.03-129.97.01-8.99,7.13-16.25,17.27-18.12.44-.08.88-.18,1.48-.42,3.07-.14,5.99-.14,9.31,0,6.57,1.13,11.47,4.22,15.76,8.71,33.52,35.04,67.11,70.02,100.66,105.03.61.63.95,1.51,1.72,2.77,1.2-1.52,1.7-2.28,2.33-2.93,33.47-34.84,66.95-69.67,100.41-104.52,3.05-3.18,6.26-6.06,10.5-7.54,1.59-.55,3.19-1.11,4.78-1.66,2.92,0,5.84,0,9.2.07,1.86.4,3.31.59,4.67,1.07,7.14,2.54,13.07,6.34,14.52,14.81-.05,43.97-.05,87.67-.04,131.38,0,1.45.06,2.9.1,4.34Z"/>
</svg>