<?xml version="1.0" encoding="utf-8"?>
<!-- Generator: Adobe Illustrator 17.0.0, SVG Export Plug-In . SVG Version: 6.00 Build 0)  -->
<!DOCTYPE svg PUBLIC "-//W3C//DTD SVG 1.1//EN" "http://www.w3.org/Graphics/SVG/1.1/DTD/svg11.dtd">
<svg version="1.1" id="Layer_1" xmlns="http://www.w3.org/2000/svg" xmlns:xlink="http://www.w3.org/1999/xlink" x="0px" y="0px"
	 width="150px" height="65px" viewBox="0 0 150 65" enable-background="new 0 0 150 65" xml:space="preserve">
<rect fill="#ED1C24" width="150" height="65"/>
<g id="XMLID_6_">
	<path fill="#FFFFFF" d="M110.748,23.237l0.013-2.412c0-0.005,0.001-0.01,0.003-0.015v-2.224h-10.703
		c-0.005,0-0.178-0.015-0.464-0.015c-1.52,0-6.478,0.413-6.478,5.726c0,5.907,6.165,6.078,6.867,6.078
		c0.057,0,0.088-0.001,0.088-0.001l3.067-0.003c0.003-0.001,0.007-0.002,0.011-0.002h0.464L110.748,23.237z M103.335,28.237h-3.672
		c0,0-0.078,0.006-0.213,0.006c-0.396,0-1.414-0.054-2.315-0.553c-1.114-0.618-1.679-1.682-1.679-3.164
		c0-3.565,3.343-3.746,4.014-3.746c0.116,0,0.183,0.005,0.183,0.005h11.051c0.017,0,0.032,0.01,0.038,0.025
		c0.006,0.015,0.003,0.033-0.009,0.045l-7.369,7.37C103.356,28.233,103.346,28.237,103.335,28.237z"/>
	<path fill="#FFFFFF" d="M90.23,41.36h2.397l10.429-10.428h-3.765c-0.07,0-1.727-0.009-3.393-0.833
		c-1.532-0.757-3.357-2.378-3.357-5.801c0-2.544,1.008-4.362,2.996-5.403c1.539-0.806,3.179-0.869,3.644-0.869
		c0.072,0,0.111,0.002,0.111,0.002l11.472,0.002v-2.164H99.291c-0.022,0-2.266,0.028-4.479,1.079
		c-2.038,0.968-4.468,3.03-4.468,7.353c0,7.164,5.595,8.577,8,8.852c0.016,0.002,0.029,0.013,0.034,0.028
		c0.005,0.015,0.001,0.032-0.01,0.043L90.23,41.36z"/>
	<path fill="#FFFFFF" d="M95.807,41.364l8.141-8.139c0.003-0.003,0.006-0.006,0.01-0.008l2.344-2.344
		c0.006-0.015,0.02-0.024,0.037-0.024h0c0,0,0,0,0,0h0h0h0h0h0h0c0.01,0.001,0.016,0.009,0.023,0.016l0.43-0.432
		c-0.007-0.006-0.018-0.007-0.019-0.017c-0.003-0.019,0.009-0.038,0.027-0.044L109,28.176c0.002-0.004,0.004-0.008,0.008-0.011
		l1.741-1.743l0.012-2.408l-17.35,17.35H95.807z"/>
	<polygon fill="#FFFFFF" points="120.1,23.245 120.1,20.693 99.433,41.36 101.983,41.36 	"/>
	<path fill="#FFFFFF" d="M127.277,30.087c-1.664,0.82-3.315,0.829-3.385,0.829h-10.637L102.812,41.36h2.55l8.141-8.149
		c0.008-0.008,0.018-0.012,0.029-0.012h10.401c0.628-0.008,3.887-0.16,6.298-2.32c0.008-0.007,0.017-0.011,0.027-0.011
		c0.002-0.009,0.006-0.017,0.013-0.024c0.178-0.163,0.335-0.318,0.48-0.475c0.008-0.008,0.019-0.013,0.03-0.013l1.842,0.003
		c0.002,0,0.032,0.001,0.088,0.001c0.701,0,6.846-0.17,6.866-6.047V20.19h-2.337v4.318c0,1.482-0.564,2.547-1.678,3.165
		c-0.9,0.499-1.919,0.553-2.315,0.553c-0.135,0-0.214-0.006-0.217-0.006h-0.848c-0.014,0-0.027-0.007-0.035-0.018
		c-0.008-0.011-0.01-0.026-0.004-0.039c0.398-0.968,0.628-2.073,0.682-3.285c0.01-0.2,0.015-0.383,0.015-0.566V20.19l-2.2-0.002
		v4.124C130.632,27.72,128.806,29.333,127.277,30.087z"/>
	<path fill="#FFFFFF" d="M140.157,20.188v4.124c-0.01,3.408-1.835,5.022-3.364,5.775c-1.664,0.82-3.315,0.829-3.384,0.829h-3.107
		v2.283h3.148c0.632-0.008,3.902-0.161,6.315-2.334c0.003-0.002,0.006-0.004,0.009-0.006c0.002-0.002,0.003-0.003,0.005-0.004
		c0.002-0.004,0.005-0.007,0.008-0.01c0.163-0.147,0.326-0.308,0.484-0.479c0.58-0.63,1.047-1.367,1.387-2.192
		c0.001-0.003,0.002-0.007,0.003-0.01c0.396-0.97,0.626-2.075,0.683-3.285c0.007-0.177,0.012-0.36,0.014-0.567V20.19L140.157,20.188
		z"/>
	<path fill="#FFFFFF" d="M127.728,24.508c0,1.482-0.564,2.547-1.678,3.165c-0.9,0.499-1.919,0.553-2.315,0.553
		c-0.135,0-0.214-0.006-0.217-0.006h-4.928c-0.017,0-0.032-0.01-0.038-0.025c-0.006-0.015-0.003-0.033,0.009-0.045l1.539-1.54
		v-2.537l-6.288,6.286h2.549c0.005-0.002,0.01-0.003,0.013-0.003l6.734,0.003c0.002,0,0.032,0.001,0.088,0.001
		c0.7,0,6.845-0.17,6.868-6.047V20.19h-2.338V24.508z"/>
	<polygon fill="#FFFFFF" points="58.622,7.661 43.68,22.602 43.668,25.012 61.019,7.661 	"/>
	<path fill="#FFFFFF" d="M59.841,32.057c2.855-1.478,4.303-4.089,4.303-7.759c0-2.922-1.083-5.154-3.218-6.633
		c-1.765-1.223-3.823-1.613-4.893-1.737c-0.016-0.002-0.029-0.013-0.034-0.028c-0.005-0.015-0.001-0.032,0.01-0.043L64.2,7.665
		h-2.398L43.68,25.788l-0.014,2.407c0,0.023-0.019,0.041-0.041,0.041H29.549v2.133l24.862,0.006c0.002,0,0.032,0.001,0.089,0.001
		c0.703,0,6.867-0.171,6.867-6.078c0-5.313-4.958-5.726-6.478-5.726c-0.286,0-0.459,0.015-0.461,0.015h-1.05
		c-0.017,0-0.032-0.01-0.038-0.025c-0.006-0.015-0.003-0.033,0.009-0.045l0.476-0.476c0.008-0.008,0.018-0.012,0.029-0.012h1.34
		c0,0,0.038-0.002,0.11-0.002c0.466,0,2.105,0.063,3.645,0.869c1.989,1.041,2.997,2.859,2.997,5.403
		c0,3.423-1.825,5.044-3.357,5.801c-1.667,0.824-3.324,0.833-3.394,0.833H29.549v2.281h25.662
		C55.456,33.214,57.669,33.181,59.841,32.057z M54.836,20.784c0,0,0.066-0.005,0.18-0.005c0.67,0,4.013,0.181,4.013,3.746
		c0,1.482-0.564,2.547-1.678,3.164c-0.9,0.499-1.919,0.553-2.315,0.553c-0.135,0-0.213-0.006-0.216-0.006l-11.09-0.002
		c-0.017,0-0.032-0.01-0.038-0.025c-0.006-0.015-0.003-0.033,0.009-0.045l7.368-7.368c0.008-0.008,0.018-0.012,0.029-0.012H54.836z"
		/>
	<path fill="#FFFFFF" d="M77.503,30.36c0.701,0,6.846-0.169,6.867-6.047V20.19h-2.337v4.318c0,1.482-0.564,2.547-1.678,3.165
		c-0.9,0.499-1.919,0.553-2.315,0.553c-0.135,0-0.213-0.006-0.217-0.006h-5.977c-0.023,0-0.041-0.018-0.041-0.041V6.838l-2.199,2.2
		v21.321h7.81C77.417,30.359,77.447,30.36,77.503,30.36z"/>
	<path fill="#FFFFFF" d="M78.242,33.24l0-0.041c0.631-0.008,3.902-0.161,6.315-2.334c0.003-0.002,0.006-0.004,0.008-0.006
		c0.002-0.002,0.004-0.004,0.006-0.006c0.002-0.003,0.004-0.006,0.007-0.008c0.172-0.156,0.334-0.317,0.483-0.479
		c0.002-0.002,0.003-0.003,0.005-0.005c0.579-0.63,1.044-1.365,1.382-2.187c0-0.004,0.001-0.007,0.002-0.011
		c0.398-0.968,0.628-2.073,0.683-3.285c0.009-0.186,0.013-0.369,0.015-0.567V20.19l-2.2-0.002v4.124
		c-0.011,3.408-1.836,5.022-3.365,5.775c-1.664,0.82-3.315,0.829-3.385,0.829h-9.131c-0.023,0-0.041-0.018-0.041-0.041V9.617
		l-2.335,2.339v21.243h11.548L78.242,33.24z"/>
	<circle fill="#FFFFFF" cx="120.039" cy="16.268" r="2.71"/>
	<circle fill="#FFFFFF" cx="125.879" cy="16.268" r="2.71"/>
	<circle fill="#FFFFFF" cx="126.086" cy="38.691" r="2.71"/>
	<circle fill="#FFFFFF" cx="131.927" cy="38.691" r="2.71"/>
	<circle fill="#FFFFFF" cx="137.815" cy="38.691" r="2.71"/>
	<circle fill="#FFFFFF" cx="71.102" cy="38.691" r="2.71"/>
	<circle fill="#FFFFFF" cx="76.943" cy="38.691" r="2.71"/>
	<circle fill="#FFFFFF" cx="82.831" cy="38.691" r="2.71"/>
	<path fill="#FFFFFF" d="M29.964,45.844c-0.668-0.015-1.508-0.06-2.495-0.134c-0.029-0.005-0.057,0.008-0.078,0.027
		c-0.021,0.02-0.033,0.047-0.033,0.076v0.202c0,0.047,0.032,0.089,0.078,0.1c0.551,0.141,0.94,0.418,1.157,0.823
		c0.222,0.416,0.335,1.143,0.335,2.16v5.461c0,1.226-0.158,2.037-0.469,2.412c-0.31,0.373-0.649,0.583-1.008,0.625
		c-0.053,0.006-0.092,0.05-0.092,0.103v0.202c0,0.029,0.012,0.057,0.034,0.076c0.019,0.017,0.044,0.027,0.07,0.027
		c0.003,0,0.006,0,0.01,0c0.934-0.089,1.648-0.134,2.121-0.134h0.37c0.057,0,0.104-0.046,0.104-0.104V45.948
		C30.065,45.892,30.02,45.845,29.964,45.844z"/>
	<path fill="#FFFFFF" d="M36.329,46.787c-0.645-0.715-1.66-1.077-3.015-1.077c-0.313,0-0.607,0.015-0.873,0.045
		c-0.395,0.038-0.807,0.064-1.232,0.078c-0.103,0.007-0.246,0.011-0.429,0.011c-0.057,0-0.104,0.047-0.104,0.104v11.819
		c0,0.057,0.047,0.104,0.104,0.104h0.813l0.673,0.034c0.459,0.022,0.849,0.056,1.157,0.1c0.005,0.001,0.01,0.001,0.015,0.001
		c0.025,0,0.049-0.009,0.068-0.025c0.023-0.019,0.036-0.048,0.036-0.078V57.7c0-0.052-0.038-0.096-0.09-0.103
		c-0.592-0.078-1.004-0.337-1.26-0.791c-0.266-0.446-0.4-1.156-0.4-2.111v-1.852c0.569,0.182,1.145,0.274,1.713,0.274
		c1.114,0,2.032-0.338,2.729-1.004c0.699-0.653,1.053-1.538,1.053-2.632C37.286,48.413,36.964,47.507,36.329,46.787z M35.402,51.329
		c-0.448,0.498-1.139,0.75-2.054,0.75c-0.55,0-1.073-0.098-1.556-0.291v-2.375c0-1.954,0.205-2.395,0.324-2.482
		c0.236-0.159,0.624-0.24,1.154-0.24c0.966,0,1.682,0.26,2.131,0.772c0.452,0.516,0.681,1.176,0.681,1.961
		C36.081,50.179,35.852,50.82,35.402,51.329z"/>
	<path fill="#FFFFFF" d="M36.818,46.245c-0.044-0.018-0.096-0.003-0.124,0.036c-0.028,0.04-0.024,0.093,0.008,0.129
		c0.793,0.881,1.196,1.933,1.196,3.127c0,1.133-0.402,2.12-1.193,2.933c-0.035,0.036-0.039,0.09-0.011,0.131
		c0.02,0.029,0.052,0.045,0.085,0.045c0.014,0,0.028-0.003,0.041-0.008c1.537-0.657,2.316-1.735,2.316-3.201
		C39.136,47.938,38.357,46.864,36.818,46.245z"/>
	<path fill="#FFFFFF" d="M41.765,45.844l-0.363,0l-2.029-0.135c-0.028-0.003-0.057,0.008-0.078,0.027
		c-0.021,0.02-0.033,0.047-0.033,0.076v0.202c0,0.049,0.034,0.091,0.081,0.101c0.376,0.083,0.706,0.319,0.981,0.7
		c0.277,0.383,0.417,1.114,0.417,2.171v4.698c0,1.242-0.041,2.065-0.121,2.446c-0.071,0.35-0.212,0.664-0.418,0.934
		c-0.194,0.257-0.484,0.436-0.863,0.535c-0.046,0.012-0.078,0.053-0.078,0.1v0.202c0,0.03,0.013,0.057,0.034,0.077
		c0.019,0.017,0.044,0.027,0.069,0.027c0.004,0,0.007,0,0.011,0c0.837-0.089,1.392-0.134,1.649-0.134h0.74
		c0.057,0,0.104-0.046,0.104-0.104V45.948C41.868,45.891,41.822,45.844,41.765,45.844z"/>
	<path fill="#FFFFFF" d="M50.153,55.096h-0.224c-0.035,0-0.068,0.018-0.087,0.048c-0.465,0.727-0.94,1.2-1.412,1.408
		c-0.455,0.202-1.146,0.305-2.055,0.305h-1.705c-0.324,0-0.632-0.019-0.918-0.056c-0.096-0.684-0.145-1.486-0.145-2.386v-2.341
		h2.711c0.692,0,1.203,0.118,1.519,0.349c0.303,0.228,0.49,0.659,0.553,1.285c0.006,0.053,0.05,0.093,0.103,0.093h0.247
		c0.002,0,0.004,0,0.005,0c0.057,0,0.104-0.047,0.104-0.104c0-0.013-0.002-0.026-0.007-0.037c-0.023-0.431-0.04-0.712-0.055-0.858
		c-0.044-0.504-0.067-0.916-0.067-1.224c0-0.488,0.03-1.074,0.089-1.74c0.002-0.029-0.007-0.058-0.027-0.079
		c-0.02-0.021-0.047-0.034-0.076-0.034h-0.247c-0.046,0-0.086,0.03-0.099,0.074c-0.17,0.56-0.395,0.917-0.667,1.059
		c-0.283,0.149-0.878,0.224-1.769,0.224h-2.319V49.36l0.023-0.763c0.021-0.881,0.088-1.46,0.201-1.725
		c0.219-0.031,0.459-0.047,0.715-0.047h1.783c0.928,0,1.564,0.087,1.891,0.256c0.321,0.175,0.615,0.577,0.873,1.194
		c0.016,0.038,0.054,0.063,0.095,0.063h0.19c0.057,0,0.103-0.047,0.103-0.104v-0.281c0-0.047-0.021-0.396-0.034-0.601
		c-0.037-0.539-0.056-0.888-0.056-1.036c0-0.11,0.008-0.277,0.022-0.498c0.002-0.03-0.008-0.059-0.03-0.08
		c-0.02-0.021-0.043-0.028-0.079-0.031c-1.695,0.089-2.863,0.135-3.471,0.135h-3.263c-0.057,0-0.104,0.047-0.104,0.104v11.819
		c0,0.057,0.047,0.104,0.104,0.104h4.486c0.666,0,1.432,0.045,2.276,0.134c0.004,0,0.007,0,0.011,0c0.049,0,0.091-0.034,0.102-0.082
		c0.088-0.419,0.234-0.924,0.433-1.5c0.165-0.451,0.291-0.855,0.374-1.2c0.007-0.031,0-0.063-0.019-0.089
		C50.214,55.11,50.184,55.096,50.153,55.096z"/>
	<path fill="#FFFFFF" d="M65.801,45.844c-1.115-0.034-1.933-0.074-2.431-0.122c-0.023-0.009-0.049-0.013-0.07-0.01l-0.009,0.003
		l-0.061-0.006c-0.021-0.002-0.04,0.005-0.058,0.015c-0.678,0.079-1.358,0.119-2.023,0.119h-4.037c-0.057,0-0.104,0.047-0.104,0.104
		v11.819c0,0.057,0.046,0.104,0.104,0.104h0.292c0.169,0,0.921,0.045,2.236,0.134c0.025,0.004,0.057-0.008,0.078-0.027
		c0.021-0.019,0.033-0.047,0.033-0.076V57.7c0-0.049-0.034-0.091-0.082-0.101c-0.52-0.107-0.894-0.373-1.142-0.813
		c-0.252-0.445-0.379-1.126-0.379-2.024v-7.926h2.442c0.925,0,1.534,0.193,1.811,0.574c0.277,0.384,0.425,0.877,0.44,1.467
		c0.002,0.056,0.047,0.101,0.104,0.101h0.269c0.053,0,0.097-0.04,0.103-0.092c0.038-0.341,0.057-0.681,0.057-1.01
		c0-0.509,0.011-0.941,0.034-1.283c0.01-0.161,0.017-0.293,0.021-0.407c0.907,0.299,1.348,1.158,1.348,2.621v5.764
		c0,1.168-0.152,1.962-0.45,2.36c-0.298,0.398-0.664,0.616-1.117,0.666c-0.053,0.006-0.092,0.05-0.092,0.103v0.202
		c0,0.057,0.046,0.104,0.103,0.104c0.465,0,0.877-0.023,1.222-0.068c0.397-0.044,0.691-0.066,0.875-0.066h0.482
		c0.057,0,0.104-0.046,0.104-0.104V45.948C65.902,45.892,65.857,45.846,65.801,45.844z"/>
	<path fill="#FFFFFF" d="M56.282,45.844h-3.697l-0.954-0.034c-0.585-0.015-1.08-0.049-1.469-0.1
		c-0.032-0.001-0.059,0.006-0.082,0.025c-0.022,0.02-0.035,0.048-0.035,0.078c0,0.643-0.045,1.372-0.134,2.162
		c-0.03,0.235-0.046,0.432-0.046,0.585c0,0.115,0.004,0.222,0.012,0.322c0.004,0.054,0.049,0.095,0.103,0.095h0.258
		c0.048,0,0.089-0.033,0.101-0.079c0.196-0.807,0.44-1.36,0.724-1.644c0.278-0.278,0.77-0.419,1.463-0.419h2.756v7.556
		c0,1.078-0.11,1.856-0.326,2.31c-0.22,0.454-0.615,0.748-1.211,0.898c-0.046,0.012-0.078,0.053-0.078,0.1v0.202
		c0,0.029,0.012,0.057,0.034,0.076c0.019,0.017,0.044,0.027,0.07,0.027c0.003,0,0.006,0,0.01,0c0.957-0.089,1.685-0.134,2.166-0.134
		h0.336c0.057,0,0.104-0.046,0.104-0.104V45.948C56.386,45.891,56.339,45.844,56.282,45.844z"/>
	<path fill="#FFFFFF" d="M73.253,48.908c0,0.902-0.24,1.74-0.713,2.49c-0.024,0.038-0.021,0.087,0.008,0.122
		c0.02,0.024,0.05,0.037,0.08,0.037c0.013,0,0.026-0.002,0.038-0.007c1.249-0.501,1.882-1.378,1.882-2.608
		c0-1.213-0.67-2.113-1.992-2.675c-0.041-0.018-0.091-0.007-0.12,0.029c-0.029,0.035-0.032,0.085-0.007,0.123
		C72.975,47.251,73.253,48.088,73.253,48.908z"/>
	<path fill="#FFFFFF" d="M87.758,46.924c-0.041-0.025-0.096-0.017-0.129,0.019c-0.033,0.036-0.036,0.091-0.007,0.131
		c0.79,1.076,1.191,2.602,1.191,4.536c0,2.195-0.404,3.857-1.202,4.94c-0.03,0.041-0.026,0.097,0.009,0.133
		c0.02,0.021,0.047,0.032,0.074,0.032c0.02,0,0.04-0.006,0.058-0.018c1.57-1.069,2.367-2.739,2.367-4.963
		C90.119,49.478,89.325,47.859,87.758,46.924z"/>
	<path fill="#FFFFFF" d="M86.854,47.059c-0.906-1.089-2.155-1.641-3.713-1.641c-1.536,0-2.762,0.552-3.647,1.642
		c-0.878,1.098-1.323,2.689-1.323,4.73c0,1.966,0.438,3.534,1.3,4.661c0.869,1.135,2.111,1.711,3.693,1.711
		c0.994,0,1.877-0.235,2.621-0.699c0.763-0.457,1.361-1.175,1.78-2.132c0.423-0.958,0.637-2.146,0.637-3.529
		C88.201,49.731,87.748,48.136,86.854,47.059z M83.186,57.024c-2.534,0-3.765-1.661-3.765-5.077c0-3.635,1.217-5.402,3.72-5.402
		c2.557,0,3.799,1.723,3.799,5.268C86.94,55.32,85.712,57.024,83.186,57.024z"/>
	<path fill="#FFFFFF" d="M77.526,51.88c0-1.952,0.409-3.574,1.217-4.822c0.026-0.04,0.021-0.093-0.013-0.128
		c-0.033-0.034-0.086-0.041-0.128-0.017c-1.574,0.943-2.371,2.576-2.371,4.855c0,2.129,0.725,3.716,2.14,4.734
		c-0.162,0.098-0.321,0.153-0.474,0.153c-0.886,0-2.061-0.737-3.492-2.19c-0.958-0.965-1.684-1.618-2.157-1.942
		c-0.366-0.248-0.806-0.428-1.312-0.535c1.117-0.503,1.682-1.488,1.682-2.934c0-0.932-0.26-1.727-0.774-2.363
		c-0.519-0.651-1.316-0.981-2.368-0.981c-0.366,0-0.848,0.027-1.432,0.079c-0.502,0.037-0.982,0.056-1.428,0.056
		c-0.057,0-0.104,0.047-0.104,0.104v11.819c0,0.057,0.047,0.104,0.104,0.104h0.325c0.577,0,1.32,0.045,2.21,0.134
		c0.027,0.002,0.057-0.007,0.08-0.026c0.021-0.02,0.034-0.048,0.034-0.077V57.7c0-0.051-0.038-0.095-0.089-0.102
		c-1.027-0.15-1.526-1.07-1.526-2.813v-2.512c0.387,0.144,0.786,0.371,1.189,0.676c0.427,0.338,1.095,0.991,1.985,1.94
		c0.611,0.656,1.143,1.199,1.58,1.614c0.44,0.417,0.808,0.731,1.095,0.935c0.545,0.377,1.199,0.568,1.942,0.568
		c0.257,0,0.522-0.047,0.786-0.141c0.042-0.015,0.069-0.053,0.069-0.097v-0.101c0-0.057-0.047-0.104-0.104-0.104
		c-0.52,0-1.076-0.226-1.652-0.673c-0.583-0.457-1.372-1.201-2.344-2.211c-1.091-1.145-2.019-1.928-2.769-2.339
		c1.093,0.19,2.223,0.884,3.371,2.068c1.157,1.18,2.042,1.984,2.628,2.39c0.635,0.436,1.255,0.657,1.841,0.657
		c0.562,0,1.008-0.21,1.327-0.623c0.019-0.024,0.025-0.056,0.019-0.086l-0.022-0.1c0.002,0,0.004,0.002,0.007,0.002
		c0.026,0,0.052-0.01,0.072-0.029c0.035-0.034,0.042-0.087,0.017-0.128C77.917,55.199,77.526,53.647,77.526,51.88z M68.983,51.53
		c-0.474,0-0.921-0.049-1.331-0.146v-2.352c0-1.085,0.061-1.786,0.182-2.086c0.278-0.192,0.672-0.289,1.172-0.289
		c1.613,0,2.397,0.769,2.397,2.352C71.402,50.705,70.611,51.53,68.983,51.53z"/>
	<path fill="#FFFFFF" d="M96.125,57.597c-0.592-0.078-1.004-0.337-1.26-0.791c-0.266-0.446-0.4-1.156-0.4-2.111v-1.852
		c0.569,0.182,1.145,0.274,1.713,0.274c1.114,0,2.032-0.338,2.729-1.004c0.699-0.653,1.053-1.538,1.053-2.632
		c0-1.067-0.322-1.973-0.957-2.693c-0.645-0.715-1.66-1.077-3.015-1.077c-0.313,0-0.607,0.015-0.873,0.045
		c-0.395,0.038-0.807,0.064-1.232,0.078c-0.103,0.007-0.246,0.011-0.429,0.011c-0.057,0-0.104,0.047-0.104,0.104v11.819
		c0,0.057,0.047,0.104,0.104,0.104h0.813l0.673,0.034c0.459,0.022,0.849,0.056,1.157,0.1c0.005,0.001,0.01,0.001,0.015,0.001
		c0.025,0,0.049-0.009,0.068-0.025c0.023-0.019,0.036-0.048,0.036-0.078V57.7C96.215,57.648,96.176,57.604,96.125,57.597z
		 M94.465,49.413c0-1.954,0.205-2.395,0.324-2.482c0.236-0.159,0.624-0.24,1.154-0.24c0.966,0,1.682,0.26,2.131,0.772
		c0.452,0.516,0.681,1.176,0.681,1.961c0,0.755-0.229,1.397-0.68,1.905c-0.448,0.498-1.139,0.75-2.054,0.75
		c-0.55,0-1.073-0.098-1.556-0.291V49.413z"/>
	<path fill="#FFFFFF" d="M92.637,45.844c-0.668-0.015-1.508-0.06-2.495-0.134c-0.028-0.005-0.057,0.008-0.078,0.027
		c-0.021,0.02-0.033,0.047-0.033,0.076v0.202c0,0.047,0.032,0.089,0.078,0.1c0.551,0.141,0.94,0.418,1.157,0.823
		c0.222,0.416,0.335,1.143,0.335,2.16v5.461c0,1.226-0.158,2.037-0.469,2.412c-0.31,0.373-0.649,0.583-1.008,0.625
		c-0.053,0.006-0.092,0.05-0.092,0.103v0.202c0,0.029,0.012,0.057,0.034,0.076c0.019,0.017,0.044,0.027,0.07,0.027
		c0.003,0,0.006,0,0.01,0c0.934-0.089,1.648-0.134,2.121-0.134h0.37c0.057,0,0.104-0.046,0.104-0.104V45.948
		C92.738,45.892,92.693,45.845,92.637,45.844z"/>
	<path fill="#FFFFFF" d="M100.572,49.536c0,1.133-0.402,2.12-1.193,2.933c-0.035,0.036-0.039,0.09-0.011,0.131
		c0.02,0.029,0.052,0.045,0.085,0.045c0.014,0,0.027-0.003,0.041-0.008c1.537-0.657,2.316-1.735,2.316-3.201
		c0-1.498-0.78-2.571-2.318-3.191c-0.044-0.018-0.096-0.003-0.124,0.036c-0.027,0.04-0.024,0.093,0.008,0.129
		C100.169,47.291,100.572,48.342,100.572,49.536z"/>
	<path fill="#FFFFFF" d="M105.216,45.903c-0.017-0.036-0.053-0.059-0.093-0.059c-0.193,0-0.613-0.023-1.249-0.067
		c-0.615-0.045-1.104-0.068-1.454-0.068h-0.393c-0.057,0-0.104,0.046-0.104,0.104v0.202c0,0.055,0.044,0.101,0.099,0.104
		c0.644,0.029,1.214,0.197,1.693,0.499c0.465,0.294,0.839,0.713,1.111,1.247l-3.699,7.197c-0.659,1.282-1.399,2.139-2.197,2.546
		c-0.035,0.018-0.057,0.053-0.057,0.092v0.202c0,0.057,0.047,0.104,0.104,0.104c0.107,0,0.32-0.019,0.651-0.057
		c0.466-0.051,0.862-0.078,1.177-0.078c0.344,0,0.74,0.026,1.177,0.078c0.323,0.038,0.544,0.057,0.674,0.057
		c0.057,0,0.104-0.047,0.104-0.104V57.7c0-0.043-0.027-0.081-0.067-0.097c-0.589-0.224-0.875-0.589-0.875-1.115
		c0-0.311,0.076-0.62,0.224-0.918c0.117-0.234,0.151-0.298,0.149-0.298c0.01-0.01,0.018-0.022,0.023-0.036l0.052-0.136l1.036-2.029
		h4.099l0.97,2.028c0.365,0.752,0.55,1.318,0.55,1.681c0,0.462-0.251,0.73-0.766,0.818c-0.05,0.008-0.086,0.051-0.086,0.102v0.202
		c0,0.029,0.012,0.056,0.033,0.076c0.021,0.019,0.051,0.03,0.078,0.027c1.01-0.074,1.887-0.119,2.607-0.134
		c0.035-0.001,0.068-0.019,0.086-0.049c0.019-0.03,0.02-0.067,0.005-0.099L105.216,45.903z M103.846,52.023l1.587-3.073l1.465,3.073
		H103.846z"/>
	<path fill="#FFFFFF" d="M119.621,45.903c-0.017-0.036-0.053-0.059-0.093-0.059c-0.193,0-0.613-0.023-1.249-0.067
		c-0.615-0.045-1.104-0.068-1.454-0.068h-0.393c-0.057,0-0.104,0.046-0.104,0.104v0.202c0,0.055,0.044,0.101,0.099,0.104
		c0.644,0.029,1.214,0.197,1.693,0.499c0.465,0.294,0.839,0.713,1.111,1.247l-3.699,7.197c-0.573,1.114-1.22,1.909-1.925,2.366
		c-0.883-0.501-1.733-1.586-2.528-3.227l-2.63-5.449c-0.031-0.094-0.068-0.179-0.101-0.234c-0.04-0.125-0.206-0.5-0.509-1.144
		c-0.268-0.588-0.478-1.08-0.626-1.463c-0.015-0.04-0.054-0.066-0.097-0.066h-1.099c-0.036,0-0.069,0.018-0.088,0.049
		c-0.019,0.03-0.021,0.068-0.006,0.1l5.663,11.819c0.017,0.036,0.053,0.059,0.093,0.059c0.365,0,0.906,0.028,1.61,0.083
		c0.018,0.031,0.051,0.052,0.09,0.052c0.062,0,0.171-0.008,0.288-0.021l0.245,0.02c0.032,0.004,0.058-0.007,0.079-0.027
		c0.009-0.008,0.016-0.018,0.021-0.028l0.017-0.002c0.466-0.051,0.862-0.078,1.177-0.078c0.344,0,0.74,0.026,1.177,0.078
		c0.323,0.038,0.544,0.057,0.674,0.057c0.057,0,0.104-0.047,0.104-0.104V57.7c0-0.043-0.027-0.081-0.067-0.097
		c-0.589-0.224-0.875-0.589-0.875-1.115c0-0.311,0.076-0.62,0.224-0.918c0.117-0.234,0.151-0.298,0.149-0.298
		c0.01-0.01,0.018-0.022,0.023-0.036l0.052-0.136l1.036-2.029h4.099l0.97,2.028c0.365,0.752,0.55,1.318,0.55,1.681
		c0,0.462-0.251,0.73-0.766,0.818c-0.05,0.008-0.086,0.051-0.086,0.102v0.202c0,0.029,0.012,0.056,0.033,0.076
		c0.021,0.019,0.048,0.03,0.078,0.027c1.01-0.074,1.887-0.119,2.607-0.134c0.035-0.001,0.068-0.019,0.086-0.049
		c0.019-0.03,0.02-0.067,0.005-0.099L119.621,45.903z M118.251,52.023l1.587-3.073l1.465,3.073H118.251z"/>
	<path fill="#FFFFFF" d="M139.129,57.679l-6.207-6.822c-0.036-0.04-0.097-0.044-0.14-0.013l-0.326,0.253v-1.853
		c0-1.256,0.091-2.075,0.27-2.433c0.164-0.342,0.514-0.576,1.04-0.695c0.047-0.011,0.08-0.053,0.08-0.101v-0.202
		c0-0.029-0.013-0.057-0.034-0.077c-0.022-0.019-0.047-0.028-0.08-0.026c-0.518,0.052-1.297,0.097-2.314,0.134
		c-0.056,0.002-0.1,0.048-0.1,0.104v11.819c0,0.057,0.046,0.104,0.104,0.104c0.555,0,1.333,0.045,2.312,0.134
		c0.003,0,0.006,0,0.009,0c0.026,0,0.051-0.01,0.07-0.027c0.021-0.019,0.034-0.047,0.034-0.076V57.7
		c0-0.047-0.031-0.087-0.076-0.099c-0.502-0.142-0.848-0.361-1.029-0.653c-0.19-0.288-0.286-0.737-0.286-1.334v-3.677l5.303,5.899
		c0.019,0.022,0.047,0.034,0.077,0.034h1.233c0.002,0,0.004,0,0.005,0c0.057,0,0.103-0.046,0.103-0.104
		C139.177,57.73,139.158,57.698,139.129,57.679z"/>
	<path fill="#FFFFFF" d="M130.593,45.844c-0.793-0.015-1.556-0.06-2.268-0.134c-0.027-0.003-0.059,0.006-0.08,0.026
		c-0.022,0.019-0.034,0.047-0.034,0.077v0.202c0,0.046,0.031,0.087,0.076,0.099c0.502,0.142,0.844,0.36,1.015,0.648
		c0.177,0.304,0.266,0.784,0.266,1.428v7.423c0,1.14-0.404,1.786-1.235,1.975c-0.997-0.405-1.955-1.545-2.847-3.388l-2.63-5.449
		c-0.031-0.094-0.068-0.179-0.101-0.234c-0.04-0.125-0.206-0.5-0.509-1.144c-0.268-0.588-0.478-1.08-0.626-1.463
		c-0.015-0.04-0.054-0.066-0.097-0.066h-1.099c-0.036,0-0.069,0.018-0.088,0.049c-0.019,0.03-0.021,0.068-0.006,0.1l5.663,11.819
		c0.017,0.036,0.054,0.059,0.093,0.059c0.467,0,1.205,0.044,2.193,0.131c0.009,0.003,0.019,0.004,0.028,0.004
		c0.004,0,0.009,0,0.013-0.001c0.011,0.003,0.021,0,0.03-0.002c1.111-0.087,1.864-0.132,2.238-0.132
		c0.057,0,0.104-0.046,0.104-0.104V45.948C130.695,45.891,130.649,45.845,130.593,45.844z"/>
	<path fill="#FFFFFF" d="M142.257,57.596c-0.656-0.021-1.661-0.784-2.988-2.265l-4.389-4.863l2.278-1.835
		c0.023-0.024,0.067-0.057,0.135-0.103l0.751-0.583c1.224-0.951,2.369-1.568,3.405-1.832c0.045-0.012,0.078-0.053,0.078-0.1v-0.202
		c0-0.028-0.011-0.055-0.032-0.075c-0.021-0.019-0.047-0.028-0.076-0.028c-0.45,0.023-0.925,0.053-1.429,0.09
		c-0.347,0.03-0.638,0.044-0.866,0.044c-0.237,0-0.612-0.019-1.112-0.056c-0.57-0.052-1.03-0.079-1.366-0.079
		c-0.057,0-0.104,0.046-0.104,0.104v0.202c0,0.042,0.026,0.08,0.065,0.096c0.441,0.176,0.664,0.389,0.664,0.632
		c0,0.233-0.223,0.689-1.285,1.534l-2.568,2.052c-0.022,0.018-0.036,0.044-0.038,0.073c-0.002,0.028,0.007,0.057,0.027,0.078
		l6.683,7.356c0.02,0.022,0.048,0.034,0.077,0.034h0.47c0.032,0.001,0.336,0.025,1.607,0.134c0.003,0,0.006,0,0.009,0
		c0.026,0,0.051-0.01,0.07-0.027c0.021-0.02,0.033-0.047,0.033-0.076V57.7C142.357,57.644,142.313,57.598,142.257,57.596z"/>
</g>
</svg>
